<?xml version="1.0" encoding="UTF-8"?>
<svg id="Layer_2" data-name="Layer 2" xmlns="http://www.w3.org/2000/svg" xmlns:xlink="http://www.w3.org/1999/xlink" viewBox="0 0 257.81 248.15">
  <defs>
    <style>
      .cls-1 {
        fill: #0f172a;
      }

      .cls-2 {
        fill: #f97316;
      }

      .cls-3 {
        fill: url(#linear-gradient);
      }
    </style>
    <linearGradient id="linear-gradient" x1="113.5" y1="49.67" x2="241.46" y2="49.67" gradientUnits="userSpaceOnUse">
      <stop offset=".51" stop-color="#f97316"/>
      <stop offset="1" stop-color="#000"/>
    </linearGradient>
  </defs>
  <g id="Layer_1-2" data-name="Layer 1">
    <g>
      <path class="cls-1" d="M193.9,167.36c-6.52,11.33-15.22,20.62-26.68,28.22-1.62,1.15-3.35,2.18-4.84,3.48-16.58,14.62-33.13,29.29-49.67,43.95-1.41,1.25-2.73,2.58-4.79,4.54,35.84,3.04,66.86-5.43,93.93-28.87,9.33-8.24,17.92-17.12,24.72-28.41,8.73-13.71,14.54-28.54,16.84-44.67.66-4.63,1.11-9.28,2.56-13.76h11.84c-12.89-14.06-24.72-26.97-36.73-40.07-11.73,13.55-22.98,26.55-34.48,39.84,6.17.41,11.84.79,17.37,1.98-.91,11.74-3.95,22.86-10.08,33.75"/>
      <path class="cls-1" d="M155.09,114.88c.02-2.66.16-5.34.02-7.99-.26-4.73-.11-8.98,4.41-12.26,2.61-1.9,4.26-5.14,5.55-6.79-3.46-1.52-6.63-3.02-9.9-4.31-.96-.38-2.42-.59-3.21-.12-3.27,1.93-6.37,4.15-9.53,6.26-.98.66-1.96,1.86-2.96,1.88-7.78.17-15.45.32-21.77-5.87-1.93-1.89-5.65-2.53-8.6-2.68-5.14-.25-8.02-2.27-8.92-7.48-.15-.88-.38-1.75-.39-1.78-4.4,2.73-8.76,5.26-12.9,8.1-1.39.96-3.29,2.92-3.09,4.11.69,4.01,1.45,8.37,3.6,11.69,3.28,5.07,6.72,9.83,6.67,16.89-3.2,5.58-6.49,11.1-9.51,16.78-.65,1.22-.31,2.98-.57,5.38-.88,5.59.54,9.38,6.33,12.03,6.74,3.08,12.98,7.39,19.15,11.58,3.31,2.25,8.87,2.94,7.91,9.11-.06.4.8,1,1.32,1.41,4.76,3.8,9.54,7.58,14.81,11.76,1.79-2.47,3.61-4.36,4.7-6.61,2.47-5.11,4.38-10.51,6.95-15.57.98-1.92,3-3.44,4.8-4.8,4.07-3.06,8.31-5.9,12.42-8.78-2.9-5.69-8.18-9.47-7.21-16.94-.09-4.7-.18-9.39-.1-15.01"/>
      <path class="cls-2" d="M23.02,52.76s-.04-.1-.61.27c-8.67,12.44-15.43,25.74-18.77,41.38-3.83,16-4.88,32.1-1.96,49.26,2.66,18.2,8.71,35.09,19.64,50.79,16.08,22.89,37.1,39.17,63.79,48.01,3.45,1.14,5.69.62,8.37-1.77,11.29-10.08,22.78-19.92,34.25-29.8.93-.8,2.21-1.19,3.33-1.77-.36-.5-.71-.99-1.07-1.49-16.26,1.84-31.42-1.83-46.32-9.37-18.57-9.96-31.09-25.21-38.81-44.59-.28-.71.99-2.88,1.79-3.03,2.74-.51,5.58-.42,9.24-.27h10.29c0-13.01,0-25.32-.07-38.17-.33-.05-.66-.11-1.93-.3h-22.5c.42-3.2.75-5.65,1.37-8.82,3.47-14.69,10.9-27.22,21.56-38.59,6.37-5.04,12.96-9.84,19.08-15.18,14.53-12.68,28.84-25.63,43.24-38.46,3.42-3.04,6.87-6.04,10.31-9.06-.15-.61-.3-1.21-.45-1.82-12.14.94-24.48.83-36.39,3.03-30.97,5.73-56.24,21.34-75.94,46.85-.52.94-1.04,1.88-1.46,2.87"/>
      <path class="cls-3" d="M168.35,54.56c14.5,9.62,24.54,22.92,31.56,39.35,6.97-8.26,13.46-15.95,20.37-24.14,7.26,8.07,14.22,15.81,21.17,23.55-3.18-14.27-8.72-27.29-17.67-39.54-16.33-23.27-38.23-38.93-65.08-47.95-2.94-.99-4.58,0-6.56,1.74-10.72,9.46-21.52,18.84-32.29,28.25-1.8,1.57-3.6,3.15-6.35,5.55,20.47-1.91,38.14,2.73,54.85,13.2"/>
    </g>
  </g>
</svg>
